<?xml version="1.0" encoding="UTF-8"?>
<!-- Uploaded to: SVG Repo, www.svgrepo.com, Generator: SVG Repo Mixer Tools -->
<svg width="800px" height="800px" fill="#000000" version="1.1" viewBox="0 0 234.1 234.1" xml:space="preserve" xmlns="http://www.w3.org/2000/svg"><path d="m175.23 51.034c-0.852-0.808-21.041-19.634-39.504-14.676-5.294 1.418-10.156 3.718-14.306 6.682 1.104-3.173 2.317-6.163 3.661-8.849 0.254-0.509 0.394-1.045 0.427-1.579 0.364 0.032 0.71 0.136 1.08 0.136 1.926 0 3.922-0.43 5.868-1.295 3.687-1.64 6.954-4.684 9.202-8.576 4.76-8.247-1.033-19.465-1.709-20.715-0.74-1.367-2.161-2.223-3.739-2.159-1.421 0.04-14.031 0.631-18.791 8.882-2.248 3.888-3.251 8.239-2.827 12.251 0.357 3.384 1.747 6.309 3.893 8.384-0.288 0.296-0.576 0.598-0.771 0.988-3.738 7.476-6.551 16.832-8.669 26.344-0.962-1.216-1.994-2.397-3.139-3.502-10.526-10.161-30.753-5.126-31.609-4.909-1.506 0.386-2.668 1.588-2.999 3.104-0.191 0.865-4.52 21.254 6.009 31.427 6.094 5.882 13.647 8.946 20.47 8.946 2.129 0 4.156-0.369 6.077-0.974-0.49 5.15-0.756 9.171-0.883 11.4h-45.391v8.235h16.469v92.661c0 17.016 13.852 30.86 30.88 30.86s30.88-13.844 30.88-30.86v-92.66h16.469v-8.235h-41.052c0.205-3.311 0.694-10.021 1.669-18.229 0.667-1.05 1.217-2.17 1.64-3.357 2.552 2.526 5.783 4.595 9.619 6.071 4.172 1.604 8.792 2.412 13.578 2.412 3.854 0 7.816-0.523 11.739-1.576 18.471-4.949 26.541-31.338 26.875-32.46 0.446-1.494 0.014-3.107-1.116-4.172zm-50.68-38.033c1.564-2.71 6.053-3.981 9.24-4.487 1.158 3.016 2.3 7.539 0.736 10.245-1.361 2.36-3.335 4.246-5.414 5.167-0.965 0.43-2.808 1.021-4.304 0.149h-2e-3c-1.504-0.868-1.914-2.754-2.024-3.804-0.24-2.26 0.405-4.909 1.768-7.27zm-41.52 64.043c-5.104-4.93-4.917-15.323-4.127-21.161 5.796-1.001 16.158-1.56 21.286 3.393 3.142 3.034 5.322 6.625 6.413 10.285-0.655 3.977-1.202 7.839-1.655 11.458-4e-3 5e-3 -7e-3 0.011-0.01 0.014-4.646 4.813-14.684 2.992-21.907-3.989zm21.899 148.82c-12.486 0-22.645-10.149-22.645-22.625v-26.783h12.352v-8.235h-12.353v-12.351h12.352v-8.235h-12.352v-12.352h45.29v67.956h1e-3c0 12.477-10.159 22.625-22.645 22.625zm22.645-115.28v16.469h-45.29v-16.469h45.29zm19.766-30.868c-7.133 1.91-14.31 1.709-20.233-0.571-5.462-2.099-9.133-5.726-10.336-10.209-1.202-4.483 0.165-9.461 3.846-14.008 3.99-4.933 10.113-8.701 17.239-10.611 1.45-0.386 2.933-0.563 4.433-0.563 10.152 0 20.965 7.977 25.311 11.564-2.263 6.059-9.01 21.382-20.26 24.398z"/></svg>
